<mxfile host="Electron" modified="2023-12-02T03:24:06.730Z" agent="Mozilla/5.0 (Macintosh; Intel Mac OS X 10_15_7) AppleWebKit/537.36 (KHTML, like Gecko) draw.io/22.1.2 Chrome/114.0.5735.289 Electron/25.9.4 Safari/537.36" etag="ImVCVtdyY8vuGJzPMTNM" version="22.1.2" type="device">
  <diagram name="Page-1" id="DmPnUii4igotoNXxM1iN">
    <mxGraphModel dx="1026" dy="749" grid="1" gridSize="10" guides="1" tooltips="1" connect="1" arrows="1" fold="1" page="1" pageScale="1" pageWidth="850" pageHeight="1100" math="0" shadow="0">
      <root>
        <mxCell id="0" />
        <mxCell id="1" parent="0" />
        <mxCell id="NESVG6GEZuiT4kJd_pCT-1" value="" style="rounded=0;whiteSpace=wrap;html=1;fillColor=#dae8fc;strokeColor=#6c8ebf;" parent="1" vertex="1">
          <mxGeometry x="270" y="90" width="320" height="370" as="geometry" />
        </mxCell>
        <mxCell id="NESVG6GEZuiT4kJd_pCT-2" value="split texto en&amp;nbsp;&lt;br&gt;oraciones" style="rounded=0;whiteSpace=wrap;html=1;fillColor=#fff2cc;strokeColor=#d6b656;" parent="1" vertex="1">
          <mxGeometry x="285" y="214" width="120" height="60" as="geometry" />
        </mxCell>
        <mxCell id="NESVG6GEZuiT4kJd_pCT-3" value="&lt;b&gt;&lt;font style=&quot;font-size: 14px;&quot;&gt;API Embedding&lt;br&gt;registrar&lt;br&gt;&lt;/font&gt;&lt;/b&gt;" style="text;html=1;strokeColor=none;fillColor=none;align=center;verticalAlign=middle;whiteSpace=wrap;rounded=0;" parent="1" vertex="1">
          <mxGeometry x="410" y="100" width="60" height="30" as="geometry" />
        </mxCell>
        <mxCell id="NESVG6GEZuiT4kJd_pCT-4" value="&lt;b&gt;BD&lt;/b&gt;" style="shape=cylinder3;whiteSpace=wrap;html=1;boundedLbl=1;backgroundOutline=1;size=15;fillColor=#d5e8d4;strokeColor=#82b366;" parent="1" vertex="1">
          <mxGeometry x="488" y="370" width="60" height="70" as="geometry" />
        </mxCell>
        <mxCell id="NESVG6GEZuiT4kJd_pCT-5" value="documento investigaciÃ³n" style="shape=document;whiteSpace=wrap;html=1;boundedLbl=1;fillColor=#fff2cc;strokeColor=#d6b656;" parent="1" vertex="1">
          <mxGeometry x="287.5" y="141" width="115" height="50" as="geometry" />
        </mxCell>
        <mxCell id="NESVG6GEZuiT4kJd_pCT-6" value="split texto en&amp;nbsp;&lt;br&gt;oraciones" style="rounded=0;whiteSpace=wrap;html=1;fillColor=#fff2cc;strokeColor=#d6b656;" parent="1" vertex="1">
          <mxGeometry x="285" y="298" width="120" height="60" as="geometry" />
        </mxCell>
        <mxCell id="NESVG6GEZuiT4kJd_pCT-7" value="modelo&lt;br&gt;&amp;nbsp;machine learning embedding" style="rounded=0;whiteSpace=wrap;html=1;fillColor=#f8cecc;strokeColor=#b85450;" parent="1" vertex="1">
          <mxGeometry x="471" y="290" width="98" height="60" as="geometry" />
        </mxCell>
        <mxCell id="NESVG6GEZuiT4kJd_pCT-8" value="insertar embedding en base de dato" style="rounded=0;whiteSpace=wrap;html=1;fillColor=#fff2cc;strokeColor=#d6b656;" parent="1" vertex="1">
          <mxGeometry x="285" y="384" width="120" height="60" as="geometry" />
        </mxCell>
        <mxCell id="NESVG6GEZuiT4kJd_pCT-9" value="" style="endArrow=classic;html=1;rounded=0;entryX=-0.015;entryY=0.392;entryDx=0;entryDy=0;entryPerimeter=0;dashed=1;" parent="1" edge="1">
          <mxGeometry width="50" height="50" relative="1" as="geometry">
            <mxPoint x="204" y="170" as="sourcePoint" />
            <mxPoint x="269.04999999999995" y="171.1199999999999" as="targetPoint" />
            <Array as="points" />
          </mxGeometry>
        </mxCell>
        <mxCell id="NESVG6GEZuiT4kJd_pCT-11" value="post" style="text;html=1;align=center;verticalAlign=middle;resizable=0;points=[];autosize=1;strokeColor=none;fillColor=none;" parent="1" vertex="1">
          <mxGeometry x="204" y="146" width="50" height="30" as="geometry" />
        </mxCell>
        <mxCell id="NESVG6GEZuiT4kJd_pCT-12" value="" style="endArrow=classic;startArrow=classic;html=1;rounded=0;" parent="1" edge="1">
          <mxGeometry width="50" height="50" relative="1" as="geometry">
            <mxPoint x="407" y="319.5" as="sourcePoint" />
            <mxPoint x="470" y="320" as="targetPoint" />
          </mxGeometry>
        </mxCell>
        <mxCell id="NESVG6GEZuiT4kJd_pCT-14" value="" style="endArrow=classic;html=1;rounded=0;" parent="1" edge="1">
          <mxGeometry width="50" height="50" relative="1" as="geometry">
            <mxPoint x="410" y="410" as="sourcePoint" />
            <mxPoint x="485" y="410" as="targetPoint" />
          </mxGeometry>
        </mxCell>
        <mxCell id="NESVG6GEZuiT4kJd_pCT-16" value="" style="endArrow=classic;html=1;rounded=0;entryX=0.5;entryY=0;entryDx=0;entryDy=0;" parent="1" edge="1">
          <mxGeometry width="50" height="50" relative="1" as="geometry">
            <mxPoint x="345" y="187" as="sourcePoint" />
            <mxPoint x="345" y="213" as="targetPoint" />
          </mxGeometry>
        </mxCell>
        <mxCell id="NESVG6GEZuiT4kJd_pCT-17" value="" style="endArrow=classic;html=1;rounded=0;" parent="1" edge="1">
          <mxGeometry width="50" height="50" relative="1" as="geometry">
            <mxPoint x="344.5" y="272.5" as="sourcePoint" />
            <mxPoint x="344.5" y="297.5" as="targetPoint" />
          </mxGeometry>
        </mxCell>
        <mxCell id="NESVG6GEZuiT4kJd_pCT-18" value="" style="endArrow=classic;html=1;rounded=0;" parent="1" edge="1">
          <mxGeometry width="50" height="50" relative="1" as="geometry">
            <mxPoint x="344.5" y="359" as="sourcePoint" />
            <mxPoint x="344.5" y="384" as="targetPoint" />
            <Array as="points">
              <mxPoint x="344.5" y="359" />
            </Array>
          </mxGeometry>
        </mxCell>
      </root>
    </mxGraphModel>
  </diagram>
</mxfile>
